<svg width="103" height="32" viewBox="0 0 103 32" fill="none" xmlns="http://www.w3.org/2000/svg">
<g filter="url(#filter0_b_4_8240)">
<rect width="103" height="32" rx="8" fill="white" fill-opacity="0.16"/>
<path d="M15.3333 9.33338H14C10.6666 9.33338 9.33331 10.6667 9.33331 14V18C9.33331 21.3334 10.6666 22.6667 14 22.6667H18C21.3333 22.6667 22.6666 21.3334 22.6666 18V16.6667M17.94 10.7667C18.3866 12.36 19.6333 13.6067 21.2333 14.06M18.6933 10.0134L13.44 15.2667C13.24 15.4667 13.04 15.86 13 16.1467L12.7133 18.1534C12.6066 18.88 13.12 19.3867 13.8466 19.2867L15.8533 19C16.1333 18.96 16.5266 18.76 16.7333 18.56L21.9866 13.3067C22.8933 12.4 23.32 11.3467 21.9866 10.0134C20.6533 8.68005 19.6 9.10671 18.6933 10.0134Z" stroke="white" stroke-width="1.5" stroke-miterlimit="10" stroke-linecap="round" stroke-linejoin="round"/>
<path d="M32.8608 20V11.2727H38.5369V12.598H34.4418V14.9673H38.2429V16.2926H34.4418V18.6747H38.571V20H32.8608ZM42.5107 20.1151C41.9964 20.1151 41.5362 19.983 41.13 19.7188C40.7237 19.4545 40.4027 19.071 40.1669 18.5682C39.9311 18.0653 39.8132 17.4545 39.8132 16.7358C39.8132 16.0085 39.9325 15.3949 40.1712 14.8949C40.4126 14.392 40.7379 14.0128 41.147 13.7571C41.5561 13.4986 42.0121 13.3693 42.5149 13.3693C42.8984 13.3693 43.2138 13.4347 43.4609 13.5653C43.7081 13.6932 43.9041 13.848 44.049 14.0298C44.1939 14.2088 44.3061 14.3778 44.3857 14.5369H44.4496V11.2727H45.9964V20H44.4794V18.9688H44.3857C44.3061 19.1278 44.1911 19.2969 44.0405 19.4759C43.8899 19.652 43.6911 19.8026 43.4439 19.9276C43.1967 20.0526 42.8857 20.1151 42.5107 20.1151ZM42.9411 18.8494C43.2678 18.8494 43.5462 18.7614 43.7763 18.5852C44.0064 18.4062 44.1811 18.1577 44.3004 17.8395C44.4197 17.5213 44.4794 17.1506 44.4794 16.7273C44.4794 16.304 44.4197 15.9361 44.3004 15.6236C44.1839 15.3111 44.0107 15.0682 43.7805 14.8949C43.5533 14.7216 43.2734 14.6349 42.9411 14.6349C42.5973 14.6349 42.3104 14.7244 42.0803 14.9034C41.8501 15.0824 41.6768 15.3295 41.5604 15.6449C41.4439 15.9602 41.3857 16.321 41.3857 16.7273C41.3857 17.1364 41.4439 17.5014 41.5604 17.8224C41.6797 18.1406 41.8544 18.392 42.0845 18.5767C42.3175 18.7585 42.603 18.8494 42.9411 18.8494ZM47.6403 20V13.4545H49.1829V20H47.6403ZM48.4158 12.5256C48.1715 12.5256 47.9613 12.4446 47.7852 12.2827C47.609 12.1179 47.521 11.9205 47.521 11.6903C47.521 11.4574 47.609 11.2599 47.7852 11.098C47.9613 10.9332 48.1715 10.8509 48.4158 10.8509C48.663 10.8509 48.8732 10.9332 49.0465 11.098C49.2227 11.2599 49.3107 11.4574 49.3107 11.6903C49.3107 11.9205 49.2227 12.1179 49.0465 12.2827C48.8732 12.4446 48.663 12.5256 48.4158 12.5256ZM54.0376 13.4545V14.6477H50.2749V13.4545H54.0376ZM51.2038 11.8864H52.7464V18.0312C52.7464 18.2386 52.7777 18.3977 52.8402 18.5085C52.9055 18.6165 52.9908 18.6903 53.0959 18.7301C53.201 18.7699 53.3175 18.7898 53.4453 18.7898C53.5419 18.7898 53.63 18.7827 53.7095 18.7685C53.7919 18.7543 53.8544 18.7415 53.897 18.7301L54.157 19.9361C54.0746 19.9645 53.9567 19.9957 53.8033 20.0298C53.6527 20.0639 53.468 20.0838 53.2493 20.0895C52.8629 20.1009 52.5149 20.0426 52.2053 19.9148C51.8956 19.7841 51.6499 19.5824 51.468 19.3097C51.2891 19.0369 51.201 18.696 51.2038 18.2869V11.8864ZM61.1594 20.1278C60.506 20.1278 59.945 19.9844 59.4762 19.6974C59.0103 19.4105 58.6509 19.0142 58.3981 18.5085C58.1481 18 58.0231 17.4148 58.0231 16.7528C58.0231 16.0881 58.1509 15.5014 58.4066 14.9929C58.6623 14.4815 59.0231 14.0838 59.489 13.7997C59.9577 13.5128 60.5117 13.3693 61.1509 13.3693C61.6822 13.3693 62.1523 13.4673 62.5614 13.6634C62.9734 13.8565 63.3015 14.1307 63.5458 14.4858C63.7901 14.8381 63.9293 15.25 63.9634 15.7216H62.489C62.4293 15.4062 62.2873 15.1435 62.0629 14.9332C61.8413 14.7202 61.5444 14.6136 61.1722 14.6136C60.8569 14.6136 60.5799 14.6989 60.3413 14.8693C60.1026 15.0369 59.9165 15.2784 59.783 15.5938C59.6523 15.9091 59.587 16.2869 59.587 16.7273C59.587 17.1733 59.6523 17.5568 59.783 17.8778C59.9137 18.196 60.0969 18.4418 60.3327 18.6151C60.5714 18.7855 60.8512 18.8707 61.1722 18.8707C61.3995 18.8707 61.6026 18.8281 61.7816 18.7429C61.9634 18.6548 62.1154 18.5284 62.2376 18.3636C62.3597 18.1989 62.4435 17.9986 62.489 17.7628H63.9634C63.9265 18.2259 63.7901 18.6364 63.5543 18.9943C63.3185 19.3494 62.9975 19.6278 62.5913 19.8295C62.185 20.0284 61.7077 20.1278 61.1594 20.1278ZM68.0852 20.1278C67.446 20.1278 66.892 19.9872 66.4233 19.706C65.9545 19.4247 65.5909 19.0312 65.3324 18.5256C65.0767 18.0199 64.9489 17.429 64.9489 16.7528C64.9489 16.0767 65.0767 15.4844 65.3324 14.9759C65.5909 14.4673 65.9545 14.0724 66.4233 13.7912C66.892 13.5099 67.446 13.3693 68.0852 13.3693C68.7244 13.3693 69.2784 13.5099 69.7472 13.7912C70.2159 14.0724 70.5781 14.4673 70.8338 14.9759C71.0923 15.4844 71.2216 16.0767 71.2216 16.7528C71.2216 17.429 71.0923 18.0199 70.8338 18.5256C70.5781 19.0312 70.2159 19.4247 69.7472 19.706C69.2784 19.9872 68.7244 20.1278 68.0852 20.1278ZM68.0938 18.892C68.4403 18.892 68.7301 18.7969 68.9631 18.6065C69.196 18.4134 69.3693 18.1548 69.483 17.831C69.5994 17.5071 69.6577 17.1463 69.6577 16.7486C69.6577 16.348 69.5994 15.9858 69.483 15.6619C69.3693 15.3352 69.196 15.0753 68.9631 14.8821C68.7301 14.6889 68.4403 14.5923 68.0938 14.5923C67.7386 14.5923 67.4432 14.6889 67.2074 14.8821C66.9744 15.0753 66.7997 15.3352 66.6832 15.6619C66.5696 15.9858 66.5128 16.348 66.5128 16.7486C66.5128 17.1463 66.5696 17.5071 66.6832 17.831C66.7997 18.1548 66.9744 18.4134 67.2074 18.6065C67.4432 18.7969 67.7386 18.892 68.0938 18.892ZM78.1548 13.4545L75.8239 20H74.1193L71.7884 13.4545H73.4332L74.9375 18.3168H75.0057L76.5142 13.4545H78.1548ZM81.8974 20.1278C81.2411 20.1278 80.6744 19.9915 80.1971 19.7188C79.7227 19.4432 79.3576 19.054 79.1019 18.5511C78.8462 18.0455 78.7184 17.4503 78.7184 16.7656C78.7184 16.0923 78.8462 15.5014 79.1019 14.9929C79.3604 14.4815 79.7212 14.0838 80.1843 13.7997C80.6474 13.5128 81.1914 13.3693 81.8164 13.3693C82.2198 13.3693 82.6005 13.4347 82.9585 13.5653C83.3192 13.6932 83.6374 13.892 83.913 14.1619C84.1914 14.4318 84.4102 14.7756 84.5692 15.1932C84.7283 15.608 84.8079 16.1023 84.8079 16.6761V17.1491H79.4428V16.1094H83.3292C83.3263 15.8139 83.2624 15.5511 83.1374 15.321C83.0124 15.0881 82.8377 14.9048 82.6133 14.7713C82.3917 14.6378 82.1332 14.571 81.8377 14.571C81.5224 14.571 81.2454 14.6477 81.0067 14.8011C80.7681 14.9517 80.582 15.1506 80.4485 15.3977C80.3178 15.642 80.2511 15.9105 80.2482 16.2031V17.1108C80.2482 17.4915 80.3178 17.8182 80.457 18.0909C80.5962 18.3608 80.7908 18.5682 81.0408 18.7131C81.2908 18.8551 81.5835 18.9261 81.9187 18.9261C82.1431 18.9261 82.3462 18.8949 82.5281 18.8324C82.7099 18.767 82.8675 18.6719 83.0011 18.5469C83.1346 18.4219 83.2354 18.267 83.3036 18.0824L84.744 18.2443C84.6531 18.625 84.4798 18.9574 84.2241 19.2415C83.9712 19.5227 83.6474 19.7415 83.2525 19.8977C82.8576 20.0511 82.4059 20.1278 81.8974 20.1278ZM86.1129 20V13.4545H87.6087V14.5455H87.6768C87.7962 14.1676 88.0007 13.8764 88.2905 13.6719C88.5831 13.4645 88.9169 13.3608 89.2919 13.3608C89.3771 13.3608 89.4723 13.3651 89.5774 13.3736C89.6854 13.3793 89.7749 13.3892 89.8459 13.4034V14.8224C89.7805 14.7997 89.6768 14.7798 89.5348 14.7628C89.3956 14.7429 89.2607 14.733 89.13 14.733C88.8487 14.733 88.5959 14.794 88.3714 14.9162C88.1499 15.0355 87.9751 15.2017 87.8473 15.4148C87.7195 15.6278 87.6555 15.8736 87.6555 16.152V20H86.1129Z" fill="white"/>
<rect x="0.5" y="0.5" width="102" height="31" rx="7.5" stroke="url(#paint0_linear_4_8240)"/>
</g>
<defs>
<filter id="filter0_b_4_8240" x="-12" y="-12" width="127" height="56" filterUnits="userSpaceOnUse" color-interpolation-filters="sRGB">
<feFlood flood-opacity="0" result="BackgroundImageFix"/>
<feGaussianBlur in="BackgroundImageFix" stdDeviation="6"/>
<feComposite in2="SourceAlpha" operator="in" result="effect1_backgroundBlur_4_8240"/>
<feBlend mode="normal" in="SourceGraphic" in2="effect1_backgroundBlur_4_8240" result="shape"/>
</filter>
<linearGradient id="paint0_linear_4_8240" x1="-3.21875" y1="2.125" x2="17.8607" y2="61.2362" gradientUnits="userSpaceOnUse">
<stop stop-color="#F4F4F5" stop-opacity="0.12"/>
<stop offset="1" stop-color="#F4F4F5" stop-opacity="0.32"/>
</linearGradient>
</defs>
</svg>